# xmcd
#
# Track frame offsets:
# 150
# 36562
# 61985
# 83787
# 112313
# 141782
# 180847
# 218029
# 246918
#
# Disc length: 3775 seconds
#
#
# Revision: 1
# Processed by: cddbd v1.5.1PL0 Copyright (c) Steve Scherf et al.
# Submitted via: FreeRIP 2.90 
#
DISCID=800ebd09
DTITLE=Dimitri Ashkenazy - Francaix - Tanejev - Rimski-Korsakow - Moser
DYEAR=1998
DGENRE=Classical
TTITLE0=J. Francaix - Concerto for clarinet and orchestra - 1. Allegro
TTITLE1=J. Francaix - Concerto for clarinet and orchestra - 2. Scherzando - Trio - Da capo (Scherzando)
TTITLE2=J. Francaix - Concerto for clarinet and orchestra - 3. Andantino
TTITLE3=J. Francaix - Concerto for clarinet and orchestra - 4. Allegrissimo
TTITLE4=S. Tanejev - Canzona for clarinet and string orchestra
TTITLE5=N. Rimski-Korsakow - Concerto for clarinet and wind band
TTITLE6=R. Moser - Concerto for clarinet and strings op. 101 - 1. Allegro
TTITLE7=R. Moser - Concerto for clarinet and strings op. 101 - 2. Passacaglia: Andante
TTITLE8=R. Moser - Concerto for clarinet and strings op. 101 - 3. Vivace
EXTD=YEAR: 1998
EXTT0=
EXTT1=
EXTT2=
EXTT3=
EXTT4=
EXTT5=
EXTT6=
EXTT7=
EXTT8=
PLAYORDER=
